<svg width="81" height="54" viewBox="0 0 81 54" fill="none" xmlns="http://www.w3.org/2000/svg">
<path fill-rule="evenodd" clip-rule="evenodd" d="M12 4H69C73.4183 4 77 7.58172 77 12V42C77 46.4183 73.4183 50 69 50H12C7.58172 50 4 46.4183 4 42V12C4 7.58172 7.58172 4 12 4ZM0 12C0 5.37258 5.37258 0 12 0H69C75.6274 0 81 5.37258 81 12V42C81 48.6274 75.6274 54 69 54H12C5.37258 54 0 48.6274 0 42V12ZM17 37C21.4183 37 25 33.4183 25 29C25 24.5817 21.4183 21 17 21C12.5817 21 9 24.5817 9 29C9 33.4183 12.5817 37 17 37ZM10 10H21V16H10V10ZM59 10H25V13H59V10ZM30 17H55V20H30V17ZM55 24H30V27H55V24ZM30 36H55V39H30V36ZM71 25H60V31H71V25Z" fill="#AEAEB2"/>
</svg>
